<mxfile host="app.diagrams.net" modified="2023-05-24T16:31:39.105Z" agent="Mozilla/5.0 (X11; Ubuntu; Linux x86_64; rv:109.0) Gecko/20100101 Firefox/113.0" version="21.3.3" etag="Z0550C9y_Zn2CdnQP4xZ" type="github">
  <diagram name="Page-1" id="J9Fv0Nb34C5IUOtv3Hpg">
    <mxGraphModel>
      <root>
        <mxCell id="0" />
        <mxCell id="1" parent="0" />
      </root>
    </mxGraphModel>
  </diagram>
</mxfile>
